<svg width="40" height="40" viewBox="0 0 40 40" fill="none" xmlns="http://www.w3.org/2000/svg">
<path d="M14 12.7996C14 12.1369 14.5373 11.5996 15.2 11.5996H30.8C31.4627 11.5996 32 12.1369 32 12.7996C32 13.4623 31.4627 13.9996 30.8 13.9996H15.2C14.5373 13.9996 14 13.4623 14 12.7996ZM30.8 18.7996H9.2C8.53728 18.7996 8 19.3369 8 19.9996C8 20.6623 8.53728 21.1996 9.2 21.1996H30.8C31.4627 21.1996 32 20.6623 32 19.9996C32 19.3369 31.4627 18.7996 30.8 18.7996ZM30.8 25.9996H20C19.3373 25.9996 18.8 26.5369 18.8 27.1996C18.8 27.8623 19.3373 28.3996 20 28.3996H30.8C31.4627 28.3996 32 27.8623 32 27.1996C32 26.5369 31.4627 25.9996 30.8 25.9996Z" fill="white"/>
</svg>
