<svg width="17" height="15" viewBox="0 0 17 15" fill="none" xmlns="http://www.w3.org/2000/svg">
<path d="M17 8.51492C17 6.1887 16.0637 4.07773 14.5491 2.5394C14.5373 2.52366 14.5247 2.50824 14.5104 2.4939C14.496 2.47955 14.4807 2.46693 14.465 2.45515C12.9294 0.937926 10.8221 0 8.5 0C6.17791 0 4.07064 0.937981 2.53495 2.45515C2.51923 2.46698 2.5039 2.4796 2.48958 2.4939C2.47526 2.50824 2.46266 2.5236 2.45084 2.5394C0.936338 4.07773 0 6.1887 0 8.51492C0 10.789 0.883944 12.9269 2.48897 14.5352C2.48919 14.5354 2.48941 14.5357 2.48964 14.5359C2.4898 14.536 2.48991 14.5362 2.49008 14.5363C2.4903 14.5365 2.49053 14.5367 2.49075 14.537C2.57235 14.6187 2.67931 14.6595 2.78627 14.6595C2.89329 14.6595 3.0003 14.6186 3.0819 14.5368C3.08887 14.5299 3.09517 14.5224 3.10152 14.5151L4.38973 13.2245C4.55299 13.0609 4.55299 12.7958 4.38973 12.6323C4.22648 12.4688 3.96178 12.4688 3.79858 12.6323L2.7933 13.6393C1.62108 12.3326 0.94102 10.688 0.847492 8.93369H2.26919C2.50006 8.93369 2.68723 8.74625 2.68723 8.51492C2.68723 8.2836 2.50006 8.09616 2.26919 8.09616H0.847603C0.94481 6.29423 1.66516 4.65568 2.79603 3.39318L3.79858 4.3975C3.88018 4.47924 3.9872 4.52011 4.09416 4.52011C4.20112 4.52011 4.30813 4.47924 4.38973 4.3975C4.55299 4.2339 4.55299 3.96879 4.38973 3.80525L3.38724 2.80088C4.64758 1.66803 6.2832 0.946413 8.08197 0.849091V2.27323C8.08197 2.50456 8.26913 2.692 8.5 2.692C8.73087 2.692 8.91803 2.50456 8.91803 2.27323V0.849091C10.7168 0.946413 12.3524 1.66809 13.6128 2.80093L12.6102 3.80525C12.447 3.96885 12.447 4.23395 12.6102 4.3975C12.6918 4.47924 12.7988 4.52011 12.9058 4.52011C13.0127 4.52011 13.1198 4.47924 13.2014 4.3975L14.2039 3.39318C15.3348 4.65574 16.0552 6.29423 16.1523 8.09616H14.7307C14.4998 8.09616 14.3127 8.2836 14.3127 8.51492C14.3127 8.74625 14.4998 8.93369 14.7307 8.93369H16.1524C16.0589 10.688 15.3789 12.3327 14.2066 13.6394L13.2014 12.6323C13.0382 12.4688 12.7735 12.4688 12.6102 12.6323C12.447 12.7959 12.447 13.061 12.6102 13.2245L13.9192 14.5358C14.0008 14.6176 14.1078 14.6585 14.2148 14.6585C14.2682 14.6585 14.3217 14.6482 14.3721 14.6278C14.4224 14.6074 14.4696 14.5767 14.5104 14.5358C16.1158 12.9275 17 10.7893 17 8.51492Z" fill="#5B4DBB"/>
<path d="M10.4211 3.71376C10.2067 3.62772 9.96348 3.73202 9.87764 3.94676L8.66964 6.96746C8.61334 6.96143 8.55705 6.9573 8.5007 6.9573C7.91233 6.9573 7.38087 7.28377 7.11361 7.8093C6.83425 8.35866 6.90582 9.01507 7.3049 9.56505C7.3457 9.62127 7.39698 9.6727 7.4535 9.71385C7.77772 9.94998 8.13985 10.0748 8.5007 10.0748C9.08906 10.0748 9.62058 9.7483 9.88778 9.22277C10.1671 8.67341 10.0956 8.01706 9.69677 7.46747C9.65597 7.41108 9.60458 7.35949 9.5479 7.31817C9.51741 7.29595 9.48625 7.27568 9.45509 7.25547L10.6537 4.25816C10.7396 4.04352 10.6355 3.79975 10.4211 3.71376ZM9.14274 8.84259C9.01895 9.08598 8.77292 9.23718 8.50064 9.23718C8.32206 9.23718 8.1423 9.1747 7.96617 9.05142C7.76552 8.7628 7.72611 8.4499 7.8586 8.18943C7.98234 7.94604 8.22836 7.79484 8.5007 7.79484C8.58754 7.79484 8.6746 7.80991 8.76144 7.83923C8.76428 7.8404 8.7669 7.84191 8.7698 7.84308C8.77894 7.84671 8.78814 7.84967 8.79733 7.85263C8.87704 7.88328 8.95641 7.92549 9.03511 7.98055C9.23571 8.26916 9.27517 8.58212 9.14274 8.84259Z" fill="#5B4DBB"/>
</svg>
