<svg width="14" height="14" viewBox="0 0 14 14" fill="none" xmlns="http://www.w3.org/2000/svg">
<path d="M6.2795 0.912048C6.35286 0.786154 6.45796 0.681697 6.58429 0.609097C6.71063 0.536497 6.85379 0.498291 6.9995 0.498291C7.14521 0.498291 7.28837 0.536497 7.41471 0.609097C7.54104 0.681697 7.64614 0.786154 7.7195 0.912048L9.58283 4.11071L13.2015 4.89471C13.3438 4.92565 13.4756 4.99335 13.5836 5.09107C13.6916 5.18879 13.7721 5.31312 13.8171 5.45166C13.8621 5.59021 13.87 5.73812 13.84 5.88066C13.81 6.0232 13.7432 6.15539 13.6462 6.26405L11.1795 9.02471L11.5528 12.708C11.5676 12.8531 11.544 12.9994 11.4844 13.1325C11.4249 13.2656 11.3315 13.3807 11.2136 13.4664C11.0956 13.5521 10.9573 13.6054 10.8123 13.6209C10.6674 13.6363 10.5209 13.6135 10.3875 13.5547L6.9995 12.0614L3.6115 13.5547C3.47811 13.6135 3.33163 13.6363 3.18667 13.6209C3.04171 13.6054 2.90336 13.5521 2.78541 13.4664C2.66747 13.3807 2.57408 13.2656 2.51455 13.1325C2.45502 12.9994 2.43144 12.8531 2.44617 12.708L2.8195 9.02471L0.352835 6.26471C0.255654 6.15606 0.188672 6.02382 0.158578 5.88119C0.128483 5.73856 0.136329 5.59053 0.181331 5.45188C0.226333 5.31323 0.306918 5.18882 0.415039 5.09105C0.523161 4.99328 0.655037 4.92558 0.797502 4.89471L4.41617 4.11071L6.2795 0.912048Z" fill="#F0AF09"/>
</svg>
