<svg width="14" height="14" viewBox="0 0 14 14" fill="none" xmlns="http://www.w3.org/2000/svg">
<path d="M13.9477 5.49369C13.8265 5.14413 13.5155 4.88819 13.141 4.83262L9.49835 4.291L7.91504 1.00362C7.74835 0.658437 7.39179 0.4375 6.99979 0.4375C6.60779 0.4375 6.25123 0.658437 6.08454 1.00362L4.50123 4.291L0.858164 4.83262C0.484102 4.88819 0.173039 5.14413 0.0522894 5.49369C-0.0680231 5.84413 0.0229769 6.23 0.287227 6.49338L2.95685 9.15863L2.33779 12.8559C2.27479 13.2283 2.43623 13.6019 2.75254 13.8197C2.92623 13.9392 3.13054 14 3.33485 14C3.50285 14 3.67129 13.9589 3.82398 13.8771L6.99979 12.1673L10.176 13.8771C10.3287 13.9589 10.4972 14 10.6647 14C10.869 14 11.0734 13.9392 11.2475 13.8197C11.5638 13.6019 11.7244 13.2283 11.6618 12.8559L11.0423 9.15863L13.7128 6.49338C13.9766 6.22956 14.0672 5.84369 13.9477 5.49369ZM10.3195 8.47131C10.0955 8.69444 9.99404 9.009 10.0452 9.31744L10.6647 13.0147L7.48848 11.3059C7.33623 11.2236 7.16823 11.1829 6.99935 11.1829C6.83135 11.1829 6.66291 11.2241 6.51066 11.3059L3.33441 13.0147L3.95391 9.31744C4.00554 9.009 3.90404 8.69444 3.68004 8.47131L1.01041 5.80606L4.65304 5.26356C4.98598 5.21413 5.27254 5.00587 5.4156 4.70881L6.99979 1.42231L8.58354 4.70925C8.72704 5.00631 9.01316 5.21412 9.34566 5.264L12.9892 5.8065L10.3195 8.47131Z" fill="#F0AF09"/>
</svg>
