<svg width="30" height="30" viewBox="0 0 30 30" fill="none" xmlns="http://www.w3.org/2000/svg">
<g clip-path="url(#clip0_1_3031)">
<path d="M20.1198 13.7852H20.8329C21.9684 13.7852 22.8884 14.7057 22.8884 15.8406V27.5073C22.8884 28.6429 21.9684 29.5628 20.8329 29.5628H9.16622C8.03184 29.5628 7.11133 28.6429 7.11133 27.5073V15.8406C7.11133 14.7057 8.03184 13.7852 9.16622 13.7852H11.3073" stroke="#796CCF" stroke-miterlimit="10" stroke-linecap="round" stroke-linejoin="round"/>
<path d="M18.0687 13.7852H15.3535" stroke="#796CCF" stroke-miterlimit="10" stroke-linecap="round" stroke-linejoin="round"/>
<path d="M9.38867 22.7383V17.2551C9.38867 16.1189 10.2195 15.1768 11.307 15.0039" stroke="#796CCF" stroke-miterlimit="10" stroke-linecap="round" stroke-linejoin="round"/>
<path d="M15.3536 15.0039C16.4405 15.1768 17.2707 16.119 17.2707 17.2551V25.3469C17.2707 26.6055 16.2512 27.6262 14.992 27.6262H11.668C10.4094 27.6262 9.38867 26.6055 9.38867 25.3469V24.7821" stroke="#796CCF" stroke-miterlimit="10" stroke-linecap="round" stroke-linejoin="round"/>
<path d="M15.3529 12.4766V13.7847V17.0012C15.3529 18.118 14.4469 19.024 13.3295 19.024C12.212 19.024 11.3066 18.118 11.3066 17.0012V13.7848V12.4766" stroke="#796CCF" stroke-miterlimit="10" stroke-linecap="round" stroke-linejoin="round"/>
<path d="M7.11133 3.5707V2.95547C7.11133 1.81523 8.03535 0.890625 9.17676 0.890625H9.30859" stroke="#796CCF" stroke-miterlimit="10" stroke-linecap="round" stroke-linejoin="round"/>
<path d="M15.2032 0.965088C16.5104 1.26216 17.486 2.43111 17.486 3.82858V10.3466C17.486 11.5232 16.5321 12.4771 15.3555 12.4771H11.3073C10.1307 12.4771 9.17677 11.5232 9.17677 10.3466V8.51201C8.03536 8.51201 7.11133 7.58798 7.11133 6.44715V5.62273" stroke="#796CCF" stroke-miterlimit="10" stroke-linecap="round" stroke-linejoin="round"/>
<path d="M18.6433 8.81303H17.4727V3.53906H18.6433C19.1811 3.53906 19.617 3.975 19.617 4.51277V7.83937C19.617 8.37709 19.1811 8.81303 18.6433 8.81303Z" stroke="#796CCF" stroke-miterlimit="10" stroke-linecap="round" stroke-linejoin="round"/>
<path d="M13.1077 6.68434H11.354C10.1143 6.68434 9.10938 5.67939 9.10938 4.43973V1.50986C9.10938 0.919766 9.58773 0.441406 10.1778 0.441406H14.2838C14.8739 0.441406 15.3522 0.919766 15.3522 1.50986V4.43973C15.3523 5.67939 14.3474 6.68434 13.1077 6.68434Z" stroke="#796CCF" stroke-miterlimit="10" stroke-linecap="round" stroke-linejoin="round"/>
<path d="M19.0938 16.5391H20.8141" stroke="#796CCF" stroke-miterlimit="10" stroke-linecap="round" stroke-linejoin="round"/>
<path d="M19.0938 19.4648H20.8141" stroke="#796CCF" stroke-miterlimit="10" stroke-linecap="round" stroke-linejoin="round"/>
<path d="M19.0938 22.3906H20.8141" stroke="#796CCF" stroke-miterlimit="10" stroke-linecap="round" stroke-linejoin="round"/>
<path d="M19.0938 25.3164H20.8141" stroke="#796CCF" stroke-miterlimit="10" stroke-linecap="round" stroke-linejoin="round"/>
</g>
<defs>
<clipPath id="clip0_1_3031">
<rect width="30" height="30" fill="white"/>
</clipPath>
</defs>
</svg>
