<svg width="30" height="30" viewBox="0 0 30 30" fill="none" xmlns="http://www.w3.org/2000/svg">
<g clip-path="url(#clip0_1_3086)">
<path d="M27.3169 3.93311L24.8169 1.43309C24.5727 1.18893 24.1772 1.18893 23.9331 1.43309C23.689 1.67725 23.689 2.07275 23.9331 2.31686L25.9912 4.37496L23.9331 6.43307C23.8159 6.55025 23.75 6.70893 23.75 6.87498V8.74998C23.75 10.1288 24.8713 11.25 26.25 11.25V21.875C26.25 22.2198 25.9699 22.5 25.625 22.5C25.2802 22.5 25 22.2199 25 21.875V20.625C25 19.5911 24.1589 18.75 23.125 18.75H22.5V2.50002C22.5 1.12119 21.3788 0 20 0H7.50004C6.12127 0 5.00002 1.12119 5.00002 2.50002V25C3.62125 25 2.5 26.1212 2.5 27.5V29.375C2.5 29.7205 2.77955 30.0001 3.12502 30.0001H24.375C24.7205 30.0001 25.0001 29.7205 25.0001 29.375V27.5C25.0001 26.1213 23.8789 25 22.5 25V20H23.1251C23.4699 20 23.7501 20.2802 23.7501 20.6251V21.875C23.7501 22.909 24.5911 23.75 25.6251 23.75C26.659 23.75 27.5001 22.909 27.5001 21.875V4.37502C27.5 4.20896 27.4341 4.05029 27.3169 3.93311ZM6.25006 2.50002C6.25006 1.81096 6.81098 1.25004 7.50004 1.25004H20C20.6891 1.25004 21.25 1.81096 21.25 2.50002V25H6.25L6.25006 2.50002ZM23.75 27.5V28.75H3.75004V27.5C3.75004 26.8109 4.31096 26.25 5.00002 26.25H22.5C23.1891 26.25 23.75 26.8109 23.75 27.5ZM26.25 10C25.561 10 25.0001 9.4391 25.0001 8.75004V7.13379L26.25 5.88381V10Z" fill="#796CCF"/>
<path d="M19.375 2.5H8.12502C7.77955 2.5 7.5 2.77955 7.5 3.12502V10.6366C7.5 10.9821 7.77955 11.2616 8.12502 11.2616H19.375C19.7205 11.2616 20 10.9821 20 10.6366V3.12496C20 2.77955 19.7205 2.5 19.375 2.5ZM18.75 10.0116H8.74998V3.74998H18.75V10.0116Z" fill="#796CCF"/>
</g>
<defs>
<clipPath id="clip0_1_3086">
<rect width="30" height="30" fill="white"/>
</clipPath>
</defs>
</svg>
