<svg width="50" height="50" viewBox="0 0 50 50" fill="none" xmlns="http://www.w3.org/2000/svg">
<path d="M11.0415 9.28872C10.5674 9.41187 10.0502 9.81209 9.84082 10.2185C9.77924 10.3355 9.62531 10.7788 9.49601 11.2036C9.24356 12.041 9.1943 12.589 9.34208 13.0077C9.45907 13.3587 9.84697 13.802 10.1856 13.9805C10.3519 14.0729 12.3037 14.6763 14.5265 15.329L18.5656 16.5173L20.2219 17.8904C21.1332 18.6477 21.8967 19.3312 21.9275 19.4112C21.9521 19.4851 22.7895 23.8014 23.787 28.9919C25.4741 37.7845 25.6157 38.4741 25.8189 38.8989C26.256 39.8225 27.1858 40.4937 28.2387 40.6476C29.0761 40.7707 29.3347 40.6907 32.3456 39.3607L34.9932 38.1908L35.1964 38.3633C35.5165 38.6465 35.7628 38.745 36.2308 38.7758C36.668 38.8004 36.6864 38.8004 37.924 38.2955C39.802 37.5443 40.0052 37.4397 40.3069 37.0949C40.6271 36.7316 40.781 36.2636 40.7317 35.808C40.7071 35.5863 39.9682 33.7022 38.2381 29.4907L35.7813 23.4873L36.0769 23.1179C36.4648 22.6438 36.5879 22.2805 36.551 21.7079C36.514 21.1661 36.3724 20.8828 35.9352 20.458C35.1594 19.7068 30.2275 15.4952 29.975 15.3721C29.7534 15.2674 29.5933 15.2366 29.1746 15.2366C28.448 15.2366 28.1709 15.3967 27.4321 16.2403C26.8841 16.8745 26.8841 16.8745 26.7486 16.7575C25.708 15.8339 21.0162 12.0533 20.7699 11.9363C20.2958 11.7208 11.9097 9.28256 11.5648 9.26409C11.3801 9.25178 11.1462 9.25793 11.0415 9.28872ZM15.8564 11.5423C18.2208 12.238 20.2096 12.8291 20.2774 12.8599C20.4005 12.9092 20.6529 13.1124 22.7895 14.8549L23.7624 15.6492L23.3313 16.1171C23.0912 16.3757 22.6417 16.8621 22.3277 17.1946L21.7551 17.8042L20.4929 16.7452C19.7971 16.1664 19.1567 15.6492 19.0644 15.5999C18.972 15.5506 17.0694 14.9719 14.8343 14.313C12.5993 13.6604 10.7028 13.0754 10.6166 13.02C10.5304 12.9646 10.4196 12.7984 10.3642 12.6506C10.2595 12.392 10.2657 12.3797 10.4935 11.5731C10.6166 11.1297 10.7767 10.6926 10.8444 10.6064C10.9737 10.4463 11.2693 10.2862 11.454 10.28C11.5094 10.28 13.4921 10.8465 15.8564 11.5423ZM29.6856 16.4188C29.7595 16.4865 31.0587 17.6133 32.5734 18.9248C34.0942 20.2302 35.3749 21.3754 35.4303 21.4554C35.5042 21.5663 35.5227 21.6956 35.5042 21.9172C35.4796 22.1758 35.4242 22.2805 35.1656 22.5822C34.753 23.0625 34.6545 23.2164 34.6545 23.3765C34.6545 23.4504 35.7936 26.295 37.1852 29.6877C39.919 36.3621 39.8328 36.1035 39.5003 36.4299C39.4264 36.5099 38.7122 36.8363 37.9179 37.1626C36.6803 37.6675 36.4401 37.7475 36.2246 37.7229C36.0522 37.6983 35.9352 37.6367 35.8367 37.5136C35.4734 37.0641 35.4057 37.0025 35.2395 37.0025C35.1471 37.0025 33.7864 37.569 32.2224 38.2586C30.6585 38.9482 29.2238 39.5454 29.033 39.5885C28.1402 39.7733 27.1242 39.2437 26.7425 38.4002C26.6378 38.1724 26.0898 35.4139 24.7721 28.5671C23.7685 23.3334 22.925 18.9679 22.888 18.8694C22.8572 18.7647 22.771 18.6416 22.6972 18.5862C22.5679 18.4877 22.5802 18.4692 23.5715 17.3978C24.4458 16.4681 24.5936 16.3265 24.6798 16.4003C24.729 16.4434 25.2155 16.8437 25.7511 17.2931C27.0565 18.3768 26.9641 18.3768 27.9554 17.2377C28.3557 16.7821 28.7436 16.3757 28.8236 16.3326C29.0145 16.2156 29.5132 16.2649 29.6856 16.4188Z" fill="#796CCF"/>
<path d="M24.0581 19.2018C23.8487 19.4112 23.8487 19.4604 23.9719 19.9715C24.1751 20.7535 24.249 20.932 24.446 21.0305C24.7908 21.2091 25.1725 20.9813 25.1725 20.5934C25.1725 20.2116 24.9139 19.3127 24.7662 19.1649C24.563 18.9617 24.2859 18.9802 24.0581 19.2018Z" fill="#796CCF"/>
<path d="M24.8951 21.9494C24.7905 22.0479 24.7412 22.1649 24.7412 22.3004C24.7474 22.4112 24.9198 23.2363 25.1353 24.1291C25.5601 25.8839 25.5971 25.9763 25.9911 25.9824C26.182 25.9824 26.5268 25.693 26.5268 25.5329C26.5268 25.4837 26.3483 24.6894 26.1327 23.7658C25.8249 22.4605 25.7079 22.0603 25.5971 21.9433C25.4062 21.7401 25.0983 21.7462 24.8951 21.9494Z" fill="#796CCF"/>
<path d="M28.9404 25.8037C28.5894 25.8714 28.1461 25.9946 27.9552 26.0869C27.2471 26.4194 26.7053 27.1583 26.5822 27.9587C26.5267 28.322 26.576 28.7099 27.1732 32.6937C27.8875 37.4286 27.869 37.3424 28.3308 37.6626C28.534 37.8042 28.6448 37.835 28.9527 37.835C29.2975 37.835 29.4514 37.7795 30.8984 37.133C31.7604 36.7513 32.9426 36.2279 33.5152 35.9755C34.094 35.7292 34.6112 35.4644 34.6728 35.3905C34.7282 35.3228 34.7775 35.1873 34.7775 35.095C34.7775 34.861 32.216 27.2445 32.0313 26.9305C31.705 26.3702 31.0154 25.8837 30.3565 25.7421C29.9255 25.6498 29.7039 25.6621 28.9404 25.8037ZM30.5228 26.9058C30.7814 27.0351 31.0277 27.2876 31.1631 27.5524C31.3417 27.9218 33.6076 34.7502 33.5645 34.7933C33.4906 34.8549 32.3577 35.3474 32.3392 35.3228C32.3269 35.3105 31.8774 33.999 31.3355 32.4043C30.7937 30.8095 30.2703 29.338 30.1657 29.1348C29.9317 28.673 29.4391 28.1373 28.768 27.6078C28.4847 27.3861 28.2508 27.1829 28.2508 27.1521C28.2508 27.0721 28.7187 26.912 29.2359 26.8135C29.7778 26.715 30.2149 26.7458 30.5228 26.9058ZM28.22 28.519C28.7433 28.9316 29.0635 29.2764 29.2421 29.6212C29.3775 29.8921 31.3294 35.606 31.3294 35.7292C31.3232 35.8462 28.9896 36.8436 28.9096 36.7636C28.8234 36.6774 27.5612 28.3959 27.6043 28.2112C27.6289 28.1065 27.6597 28.0819 27.7151 28.1188C27.7582 28.1558 27.986 28.3343 28.22 28.519Z" fill="#796CCF"/>
</svg>
