<svg width="26" height="26" viewBox="0 0 26 26" fill="none" xmlns="http://www.w3.org/2000/svg">
<g clip-path="url(#clip0_1_3020)">
<path d="M0.334251 1.66888C0.333372 1.66571 0.335013 1.6721 0.334251 1.66888V1.66888Z" fill="#796CCF"/>
<path d="M24.2197 18.7765C23.3755 18.0359 22.3159 17.7062 21.2368 17.8477L9.71031 19.3606L9.25536 14.9486C9.04427 12.5113 8.47714 10.1236 7.56963 7.85188L7.16282 6.83356C6.843 6.03294 6.23418 5.40955 5.48307 5.06419C5.81401 4.32933 5.8621 3.49753 5.60606 2.72048C5.60363 2.71301 5.60094 2.7056 5.59799 2.69829C4.95738 1.09471 3.42805 0.0357182 1.70174 0.000272768C1.27924 -0.00805537 0.880707 0.174656 0.612074 0.502551C0.34339 0.830497 0.24203 1.25594 0.333894 1.66986L4.16098 18.3701C4.20689 18.5762 4.41108 18.7063 4.6175 18.6604C4.82368 18.6145 4.95363 18.4101 4.90777 18.2039L2.29085 6.44727C2.23906 6.21398 2.29624 5.97419 2.44767 5.78935C2.59915 5.6045 2.82335 5.50243 3.06187 5.50619L4.15824 5.52869C4.38462 5.53331 4.60516 5.56804 4.81555 5.62939C4.82586 5.63299 4.83627 5.63624 4.84673 5.63893C5.56696 5.85902 6.16339 6.39385 6.45239 7.11728L6.8592 8.1356C7.73924 10.3386 8.2891 12.654 8.49349 15.0176C8.49364 15.0197 8.49385 15.0218 8.49405 15.0239L8.95144 19.4602L8.22501 19.5555C7.7335 18.8948 6.88276 18.5462 6.02867 18.7366C4.87121 18.9949 4.13909 20.1468 4.39676 21.3043C4.39726 21.3064 4.39777 21.3085 4.39823 21.3107L5.33489 25.2027C5.44783 25.6722 5.86398 26 6.34686 26H21.049C22.1346 26 23.0189 25.124 23.0335 24.0419H23.9266C24.904 24.0419 25.6992 23.188 25.6992 22.1385C25.6993 20.8269 25.16 19.6015 24.2197 18.7765ZM4.7505 4.82684C4.56276 4.78956 4.3701 4.76793 4.17403 4.76392L3.07766 4.74142C2.66323 4.73213 2.26892 4.88894 1.97499 5.17489L1.07997 1.50066C1.04057 1.31856 1.08561 1.13163 1.20378 0.987411C1.32266 0.842278 1.49988 0.762095 1.68605 0.765091C3.10056 0.794188 4.35415 1.65955 4.88314 2.97088C5.08337 3.58828 5.03366 4.25047 4.7505 4.82684ZM6.34691 25.235C6.21889 25.235 6.10865 25.1482 6.07874 25.0237L5.14289 21.1352C4.97876 20.3901 5.45032 19.6496 6.19528 19.4833C6.94131 19.3169 7.68419 19.7885 7.85151 20.5383L8.94382 25.235H6.34691ZM23.9267 23.2769H19.6127C19.4015 23.2769 19.2302 23.4482 19.2302 23.6594C19.2302 23.8707 19.4015 24.0419 19.6127 24.0419H22.2685C22.2541 24.7022 21.7128 25.235 21.0491 25.235H9.72921L9.45174 24.0419H17.8329C18.0442 24.0419 18.2154 23.8707 18.2154 23.6594C18.2154 23.4482 18.0442 23.2769 17.8329 23.2769H9.2738L8.59734 20.3683C8.59079 20.3389 8.58327 20.31 8.57555 20.2811L21.3363 18.6062C22.1941 18.4935 23.0389 18.7583 23.7152 19.3515C24.4899 20.0313 24.9343 21.0471 24.9343 22.1385C24.9343 22.7663 24.4823 23.2769 23.9267 23.2769Z" fill="#796CCF"/>
</g>
<defs>
<clipPath id="clip0_1_3020">
<rect width="26" height="26" fill="white"/>
</clipPath>
</defs>
</svg>
