<svg width="30" height="30" viewBox="0 0 30 30" fill="none" xmlns="http://www.w3.org/2000/svg">
<path d="M25.1016 19.2891H20.8828L24.5531 17.1656C24.7366 17.0598 24.8974 16.9188 25.0264 16.7508C25.1554 16.5828 25.25 16.391 25.3049 16.1864C25.3597 15.9818 25.3737 15.7684 25.3461 15.5584C25.3184 15.3484 25.2497 15.1459 25.1437 14.9625L23.0438 11.325C22.9379 11.1415 22.7969 10.9807 22.6289 10.8517C22.4609 10.7227 22.2691 10.6281 22.0645 10.5733C21.86 10.5184 21.6466 10.5044 21.4366 10.5321C21.2266 10.5597 21.0241 10.6284 20.8406 10.7344L17.1656 12.8531L17.2547 12.6984L19.2844 9.17812C19.3909 8.99486 19.4602 8.79233 19.4882 8.58219C19.5161 8.37205 19.5023 8.15846 19.4474 7.9537C19.3925 7.74894 19.2976 7.55705 19.1683 7.38909C19.039 7.22112 18.8777 7.08039 18.6938 6.975L15.0375 4.875C14.8541 4.76907 14.6516 4.70033 14.4416 4.67268C14.2316 4.64504 14.0182 4.65904 13.8136 4.71389C13.609 4.76874 13.4172 4.86336 13.2492 4.99234C13.0812 5.12133 12.9402 5.28215 12.8344 5.46562L10.7109 9.13594V4.91719C10.7134 4.70324 10.6734 4.49093 10.5933 4.29256C10.5131 4.09418 10.3944 3.91368 10.244 3.76152C10.0935 3.60936 9.91442 3.48856 9.71698 3.40612C9.51954 3.32368 9.30771 3.28124 9.09375 3.28125H4.89844C4.46991 3.28249 4.05929 3.45327 3.75628 3.75628C3.45327 4.05929 3.28249 4.46991 3.28125 4.89844V23.0016C3.28249 23.987 3.67452 24.9318 4.37136 25.6286C5.0682 26.3255 6.01296 26.7175 6.99844 26.7188H25.1016C25.5301 26.7175 25.9407 26.5467 26.2437 26.2437C26.5467 25.9407 26.7175 25.5301 26.7188 25.1016V20.9062C26.7175 20.4777 26.5467 20.0671 26.2437 19.7641C25.9407 19.4611 25.5301 19.2903 25.1016 19.2891ZM5.88281 19.3453L8.75625 14.3672L11.6344 16.0266L5.88281 19.3453ZM4.21875 20.3859V14.6344H7.5375L4.21875 20.3859ZM12.8203 16.4344L12.8578 16.4109L14.5312 19.2891H7.875L12.8203 16.4344ZM15.3656 20.2266V25.7812H11.0953V20.2266H15.3656ZM16.3031 20.2266H20.5734V25.7812H16.3031V20.2266ZM15.6 19.2891L13.6687 15.9375L17.3672 13.8047L20.1562 18.6188L19.0031 19.2891H15.6ZM21.2906 11.5453C21.3681 11.4986 21.4542 11.468 21.5438 11.4552C21.6333 11.4424 21.7245 11.4478 21.812 11.4709C21.8995 11.4941 21.9814 11.5346 22.0528 11.5901C22.1243 11.6455 22.1839 11.7148 22.2281 11.7937L24.3281 15.4312C24.3742 15.5089 24.4043 15.595 24.4168 15.6844C24.4292 15.7738 24.4237 15.8648 24.4006 15.9521C24.3774 16.0394 24.3371 16.1212 24.282 16.1927C24.227 16.2643 24.1582 16.3241 24.0797 16.3687L20.9719 18.1641L18.1781 13.3406L21.2906 11.5453ZM12.5906 15.4688L9.24375 13.5422L11.3813 9.84375L16.1906 12.6562L15.5203 13.8141L12.5906 15.4688ZM13.6453 5.92031C13.6895 5.84136 13.7491 5.7721 13.8206 5.71664C13.8921 5.66119 13.974 5.62067 14.0614 5.59749C14.1489 5.57431 14.2401 5.56896 14.3297 5.58173C14.4192 5.59451 14.5053 5.62517 14.5828 5.67188L18.2203 7.77187C18.2988 7.81521 18.3676 7.87417 18.4224 7.94512C18.4772 8.01606 18.5169 8.09749 18.5391 8.18437C18.5617 8.26996 18.5671 8.35918 18.555 8.44688C18.5429 8.53457 18.5136 8.61901 18.4688 8.69531L16.6734 11.8078L11.85 9.04219L13.6453 5.92031ZM8.08125 13.6969H4.21875V9.42656H9.77344V10.7812L8.08125 13.6969ZM4.89844 4.21875H9.11719C9.29745 4.21875 9.47033 4.29036 9.5978 4.41783C9.72527 4.54529 9.79688 4.71817 9.79688 4.89844V8.48906H4.21875V4.89844C4.21875 4.71817 4.29036 4.54529 4.41783 4.41783C4.54529 4.29036 4.71817 4.21875 4.89844 4.21875ZM4.21875 23.0016C4.21999 22.2652 4.5134 21.5593 5.03456 21.0391C5.55571 20.5188 6.26203 20.2266 6.99844 20.2266H10.1578V25.7812H6.99844C6.2616 25.78 5.55529 25.4868 5.03427 24.9657C4.51325 24.4447 4.21999 23.7384 4.21875 23.0016ZM25.7812 25.1016C25.7812 25.2818 25.7096 25.4547 25.5822 25.5822C25.4547 25.7096 25.2818 25.7812 25.1016 25.7812H21.5109V20.2266H25.1016C25.2818 20.2266 25.4547 20.2982 25.5822 20.4256C25.7096 20.5531 25.7812 20.726 25.7812 20.9062V25.1016Z" fill="#796CCF"/>
<path d="M6.99805 21.1445C6.62721 21.1445 6.2647 21.2545 5.95635 21.4605C5.64801 21.6666 5.40769 21.9594 5.26577 22.302C5.12386 22.6446 5.08673 23.0216 5.15908 23.3853C5.23142 23.749 5.41 24.0831 5.67222 24.3454C5.93445 24.6076 6.26854 24.7862 6.63225 24.8585C6.99597 24.9309 7.37297 24.8937 7.71558 24.7518C8.05819 24.6099 8.35103 24.3696 8.55705 24.0612C8.76308 23.7529 8.87305 23.3904 8.87305 23.0195C8.87305 22.5223 8.6755 22.0453 8.32387 21.6937C7.97224 21.3421 7.49533 21.1445 6.99805 21.1445ZM6.99805 23.9242C6.81263 23.9242 6.63137 23.8692 6.4772 23.7662C6.32303 23.6632 6.20287 23.5168 6.13191 23.3455C6.06095 23.1742 6.04239 22.9857 6.07856 22.8038C6.11474 22.622 6.20402 22.4549 6.33513 22.3238C6.46625 22.1927 6.63329 22.1034 6.81515 22.0672C6.99701 22.0311 7.18551 22.0496 7.35681 22.1206C7.52812 22.1915 7.67454 22.3117 7.77755 22.4659C7.88056 22.62 7.93555 22.8013 7.93555 22.9867C7.93064 23.2321 7.8297 23.4658 7.65442 23.6375C7.47913 23.8093 7.24347 23.9055 6.99805 23.9055V23.9242Z" fill="#796CCF"/>
</svg>
