<svg width="259" height="58" viewBox="0 0 259 58" fill="none" xmlns="http://www.w3.org/2000/svg">
<path d="M30.0584 57.7232L36.3751 45.6635H33.668L28.8886 55.1465L24.1093 45.6635H21.4188L27.7021 57.7232H30.0584Z" fill="white"/>
<path d="M40.3857 57.7232V45.6635H38.1297V57.7232H40.3857Z" fill="white"/>
<path d="M48.7532 57.7232V48.0474H52.9476V45.6635H42.3027V48.0474H46.4972V57.7232H48.7532Z" fill="white"/>
<path d="M66.8949 57.7232L60.5949 45.6635H58.2386L51.9386 57.7232H54.5121L55.9492 54.9186H62.8843L64.3214 57.7232H66.8949ZM62.032 53.0255H56.8182L59.4251 48.0299L62.032 53.0255Z" fill="white"/>
<path d="M79.4949 57.7232V55.3393H70.8386V45.6635H68.5826V57.7232H79.4949Z" fill="white"/>
<path d="M83.6462 57.7232V45.6635H81.3903V57.7232H83.6462Z" fill="white"/>
<path d="M93.0164 57.7232V53.2884L98.5645 45.6635H95.9408L91.9636 51.3077L87.953 45.6635H85.3461L90.7604 53.2884V57.7232H93.0164Z" fill="white"/>
<path d="M111.571 53.8143C111.571 51.6933 110.585 50.7117 107.727 50.7117H103.132C102.029 50.7117 101.711 50.3261 101.711 49.3796C101.711 48.433 102.029 48.0649 103.132 48.0649H110.902C111.002 47.2586 111.103 46.4698 111.186 45.6635H103.132C100.341 45.6635 99.4217 46.6451 99.4217 49.0465V49.4497C99.4217 51.6583 100.307 52.6925 103.065 52.6925H107.727C108.914 52.6925 109.248 53.008 109.248 54.0246C109.248 55.0588 108.897 55.3568 107.677 55.3568H99.8562C99.806 56.1456 99.7392 56.9344 99.7058 57.7232H107.827C110.568 57.7232 111.571 56.7942 111.571 54.235V53.8143Z" fill="white"/>
<path d="M133.565 57.7232L127.265 45.6635H124.908L118.608 57.7232H121.182L122.619 54.9186H129.554L130.991 57.7232H133.565ZM128.702 53.0255H123.488L126.095 48.0299L128.702 53.0255Z" fill="white"/>
<path d="M143.657 57.7232C146.214 57.7232 147.133 56.6364 147.133 53.9019V45.6635H144.877V53.9019C144.877 54.9186 144.543 55.3568 143.657 55.3568H138.042C137.156 55.3568 136.822 54.9186 136.822 53.9019V45.6635H134.583V53.9019C134.583 56.6364 135.485 57.7232 138.042 57.7232H143.657Z" fill="white"/>
<path d="M155.424 57.7232V48.0474H159.619V45.6635H148.974V48.0474H153.168V57.7232H155.424Z" fill="white"/>
<path d="M171.127 57.7232C173.867 57.7232 174.72 56.7766 174.72 53.8143V49.5724C174.72 46.61 173.867 45.6635 171.127 45.6635H165.061C162.27 45.6635 161.468 46.61 161.468 49.5724V53.8143C161.468 56.7766 162.27 57.7232 165.061 57.7232H171.127ZM172.464 53.8318C172.464 55.0238 172.146 55.3568 171.11 55.3568H165.061C164.025 55.3568 163.707 55.0238 163.707 53.8318V49.5899C163.707 48.398 164.058 48.0474 165.061 48.0474H171.11C172.113 48.0474 172.464 48.398 172.464 49.5899V53.8318Z" fill="white"/>
<path d="M194.735 53.8143C194.735 51.6933 193.749 50.7117 190.891 50.7117H186.296C185.193 50.7117 184.875 50.3261 184.875 49.3796C184.875 48.433 185.193 48.0649 186.296 48.0649H194.066C194.166 47.2586 194.267 46.4698 194.35 45.6635H186.296C183.505 45.6635 182.586 46.6451 182.586 49.0465V49.4497C182.586 51.6583 183.471 52.6925 186.229 52.6925H190.891C192.077 52.6925 192.412 53.008 192.412 54.0246C192.412 55.0588 192.061 55.3568 190.841 55.3568H183.02C182.97 56.1456 182.903 56.9344 182.87 57.7232H190.991C193.732 57.7232 194.735 56.7942 194.735 54.235V53.8143Z" fill="white"/>
<path d="M210.695 57.7232L204.395 45.6635H202.039L195.739 57.7232H198.312L199.749 54.9186H206.684L208.121 57.7232H210.695ZM205.832 53.0255H200.618L203.225 48.0299L205.832 53.0255Z" fill="white"/>
<path d="M223.295 57.7232V55.3393H214.639V45.6635H212.383V57.7232H223.295Z" fill="white"/>
<path d="M236.169 57.7232V55.3568H227.379V52.6574H235.919V50.7117H227.379V48.0474H236.169V45.6635H225.123V57.7232H236.169Z" fill="white"/>
<path d="M250.284 53.8143C250.284 51.6933 249.298 50.7117 246.44 50.7117H241.845C240.742 50.7117 240.424 50.3261 240.424 49.3796C240.424 48.433 240.742 48.0649 241.845 48.0649H249.615C249.715 47.2586 249.816 46.4698 249.899 45.6635H241.845C239.054 45.6635 238.135 46.6451 238.135 49.0465V49.4497C238.135 51.6583 239.02 52.6925 241.778 52.6925H246.44C247.627 52.6925 247.961 53.008 247.961 54.0246C247.961 55.0588 247.61 55.3568 246.39 55.3568H238.569C238.519 56.1456 238.452 56.9344 238.419 57.7232H246.54C249.281 57.7232 250.284 56.7942 250.284 54.235V53.8143Z" fill="white"/>
<path fill-rule="evenodd" clip-rule="evenodd" d="M253.472 19.4196C175.032 9.00298 169.526 -17.5719 81.8908 18.8522C81.8908 18.8522 28.678 18.092 5.94981 38.0628C65.9887 6.30236 119.98 58.1018 253.472 19.4196ZM95.121 20.7018C117.211 11.749 132.388 6.03004 149.405 4.98611C170.283 3.71523 191.897 10.3306 211.629 15.6977C202.542 36.3608 113.868 21.9727 95.121 20.7018Z" fill="url(#paint0_linear_42_1525)"/>
<path fill-rule="evenodd" clip-rule="evenodd" d="M256.707 20.0891C255.041 21.655 253.245 22.9486 253.148 24.8322C255.138 28.191 253.375 31.8561 253.375 31.8561C252.715 24.9911 249.448 28.6789 243.52 29.337C254.478 33.0021 258.773 41.8642 259 49.4327C254.013 32.5596 228.559 31.493 211.661 31.0618C211.672 31.0618 243.931 26.1258 256.707 20.0891Z" fill="url(#paint1_linear_42_1525)"/>
<path fill-rule="evenodd" clip-rule="evenodd" d="M0 55.0381C0.59498 50.3971 2.9749 44.0655 9.46558 39.6287C8.10254 40.911 5.44135 44.8711 5.28991 46.8455C18.466 37.7224 22.7607 36.4516 28.7537 34.375C27.2068 33.9892 23.9074 33.7283 20.0346 34.2729C22.9013 33.1609 42.038 28.6221 60.0821 29.2008C60.0713 29.2008 25.6274 31.7085 0 55.0381Z" fill="url(#paint2_linear_42_1525)"/>
<defs>
<linearGradient id="paint0_linear_42_1525" x1="129.5" y1="0.276367" x2="129.5" y2="57.7232" gradientUnits="userSpaceOnUse">
<stop stop-color="#5B4DBB"/>
<stop offset="1" stop-color="#B4AAF5"/>
</linearGradient>
<linearGradient id="paint1_linear_42_1525" x1="129.5" y1="0.276367" x2="129.5" y2="57.7232" gradientUnits="userSpaceOnUse">
<stop stop-color="#5B4DBB"/>
<stop offset="1" stop-color="#B4AAF5"/>
</linearGradient>
<linearGradient id="paint2_linear_42_1525" x1="129.5" y1="0.276367" x2="129.5" y2="57.7232" gradientUnits="userSpaceOnUse">
<stop stop-color="#5B4DBB"/>
<stop offset="1" stop-color="#B4AAF5"/>
</linearGradient>
</defs>
</svg>
